<?xml version="1.0" encoding="UTF-8"?>
<svg width="24px" height="24px" viewBox="0 0 24 24" version="1.1" xmlns="http://www.w3.org/2000/svg" xmlns:xlink="http://www.w3.org/1999/xlink">
    <!-- Generator: Sketch 47.1 (45422) - http://www.bohemiancoding.com/sketch -->
    <title>Scales</title>
    <desc>Created with Sketch.</desc>
    <defs></defs>
    <g id="Page-1" stroke="none" stroke-width="1" fill="none" fill-rule="evenodd">
        <g id="Scales" fill="#000000">
            <path d="M6,10 L8,14 L2,14 L4,10 L4,8.7 L2,9 L2,7 L11,5.65 L11,3 L13,3 L13,5.35 L22,4 L22,6 L20,6.3 L20,8 L22,12 L16,12 L18,8 L18,6.6 L13,7.35 L13,11 L14.729571,18.7830695 C14.8493784,19.3222028 14.5094476,19.8563797 13.9703144,19.9761871 C13.8990895,19.9920148 13.8263463,20 13.7533839,20 L10.2466161,20 C9.6943313,20 9.24661605,19.5522847 9.24661605,19 C9.24661605,18.9270377 9.25460124,18.8542944 9.27042899,18.7830695 L11,11 L11,7.65 L6,8.4 L6,10 Z M16,12 L22,12 L22,13.4907962 C22,14.3166973 21.9071744,14.6509198 21.7328673,14.9768457 C21.5585602,15.3027716 21.3027716,15.5585602 20.9768457,15.7328673 C20.6509198,15.9071744 20.3166973,16 19.4907962,16 L18.5092038,16 C17.6833027,16 17.3490802,15.9071744 17.0231543,15.7328673 C16.6972284,15.5585602 16.4414398,15.3027716 16.2671327,14.9768457 C16.0928256,14.6509198 16,14.3166973 16,13.4907962 L16,12 Z M18,12 L18,14 L20,14 L20,12 L18,12 Z M2,14 L8,14 L8,15.4907962 C8,16.3166973 7.90717439,16.6509198 7.7328673,16.9768457 C7.5585602,17.3027716 7.30277163,17.5585602 6.9768457,17.7328673 C6.65091978,17.9071744 6.31669727,18 5.49079617,18 L4.50920383,18 C3.68330273,18 3.34908022,17.9071744 3.0231543,17.7328673 C2.69722837,17.5585602 2.4414398,17.3027716 2.2671327,16.9768457 C2.09282561,16.6509198 2,16.3166973 2,15.4907962 L2,14 Z M4,14 L4,16 L6,16 L6,14 L4,14 Z" id="Rectangle-3"></path>
        </g>
    </g>
</svg>