<?xml version="1.0" encoding="UTF-8"?>
<svg width="24px" height="24px" viewBox="0 0 24 24" version="1.1" xmlns="http://www.w3.org/2000/svg" xmlns:xlink="http://www.w3.org/1999/xlink">
    <!-- Generator: Sketch 47.1 (45422) - http://www.bohemiancoding.com/sketch -->
    <title>Temperature</title>
    <desc>Created with Sketch.</desc>
    <defs></defs>
    <g id="Page-1" stroke="none" stroke-width="1" fill="none" fill-rule="evenodd">
        <g id="Temperature" fill="#000000">
            <path d="M9,12.9996338 L9,4.50920383 C9,3.68330273 9.09282561,3.34908022 9.2671327,3.0231543 C9.4414398,2.69722837 9.69722837,2.4414398 10.0231543,2.2671327 C10.3490802,2.09282561 10.6833027,2 11.5092038,2 L12.4907962,2 C13.3166973,2 13.6509198,2.09282561 13.9768457,2.2671327 C14.3027716,2.4414398 14.5585602,2.69722837 14.7328673,3.0231543 C14.9071744,3.34908022 15,3.68330273 15,4.50920383 L15,12.9996338 C16.2144467,13.9118401 17,15.3641822 17,17 C17,19.7614237 14.7614237,22 12,22 C9.23857625,22 7,19.7614237 7,17 C7,15.3641822 7.7855533,13.9118401 9,12.9996338 Z M11,4 L11,9 L13,9 L13,4 L11,4 Z" id="Oval-2"></path>
        </g>
    </g>
</svg>